<?xml version="1.0" encoding="UTF-8" standalone="no"?>
<svg
   xmlns:dc="http://purl.org/dc/elements/1.1/"
   xmlns:cc="http://creativecommons.org/ns#"
   xmlns:rdf="http://www.w3.org/1999/02/22-rdf-syntax-ns#"
   xmlns:svg="http://www.w3.org/2000/svg"
   xmlns="http://www.w3.org/2000/svg"
   xmlns:sodipodi="http://sodipodi.sourceforge.net/DTD/sodipodi-0.dtd"
   xmlns:inkscape="http://www.inkscape.org/namespaces/inkscape"
   width="108.62592mm"
   height="28.482883mm"
   viewBox="0 0 108.62591 28.482883"
   version="1.1"
   id="svg8"
   inkscape:version="1.0 (4035a4fb49, 2020-05-01)"
   sodipodi:docname="logo.svg">
  <defs
     id="defs2">
    <inkscape:path-effect
       effect="roughen"
       id="path-effect938"
       is_visible="true"
       lpeversion="1"
       method="segments"
       max_segment_size="3"
       segments="4"
       displace_x="10;1"
       displace_y="10;1"
       global_randomize="1;1991288837"
       handles="along"
       shift_nodes="true"
       fixed_displacement="true"
       spray_tool_friendly="true" />
    <inkscape:path-effect
       effect="vonkoch"
       id="path-effect935"
       is_visible="true"
       lpeversion="1"
       ref_path="M 30.116543,143.94103 110.0035,166.39291"
       generator="m 30.116543,152.27306 h 34.893879 m 34.89388,0 h 34.893878"
       similar_only="false"
       nbgenerations="1"
       drawall="true"
       maxComplexity="1003"
       ref_path-nodetypes="cc" />
    <inkscape:path-effect
       effect="simplify"
       id="path-effect933"
       is_visible="true"
       lpeversion="1"
       steps="29"
       threshold="0.0043"
       smooth_angles="0"
       helper_size="5"
       simplify_individual_paths="false"
       simplify_just_coalesce="true" />
    <inkscape:path-effect
       effect="roughen"
       id="path-effect931"
       is_visible="true"
       lpeversion="1"
       method="segments"
       max_segment_size="51.167"
       segments="2"
       displace_x="3.65;1"
       displace_y="2.37;1"
       global_randomize="5.3;1991288837"
       handles="along"
       shift_nodes="true"
       fixed_displacement="true"
       spray_tool_friendly="true" />
    <inkscape:path-effect
       effect="simplify"
       id="path-effect929"
       is_visible="true"
       lpeversion="1"
       steps="1"
       threshold="0.002"
       smooth_angles="0"
       helper_size="5"
       simplify_individual_paths="false"
       simplify_just_coalesce="false" />
    <inkscape:path-effect
       effect="simplify"
       id="path-effect927"
       is_visible="true"
       lpeversion="1"
       steps="24"
       threshold="0.002"
       smooth_angles="0"
       helper_size="5"
       simplify_individual_paths="false"
       simplify_just_coalesce="false" />
  </defs>
  <sodipodi:namedview
     id="base"
     pagecolor="#ffffff"
     bordercolor="#666666"
     borderopacity="1.0"
     inkscape:pageopacity="0.0"
     inkscape:pageshadow="2"
     inkscape:zoom="1.8552492"
     inkscape:cx="202.8423"
     inkscape:cy="112.81206"
     inkscape:document-units="mm"
     inkscape:current-layer="layer1"
     inkscape:document-rotation="0"
     showgrid="false"
     units="px"
     fit-margin-top="0"
     fit-margin-left="0"
     fit-margin-right="0"
     fit-margin-bottom="0" />
  <metadata
     id="metadata5">
    <rdf:RDF>
      <cc:Work
         rdf:about="">
        <dc:format>image/svg+xml</dc:format>
        <dc:type
           rdf:resource="http://purl.org/dc/dcmitype/StillImage" />
        <dc:title></dc:title>
      </cc:Work>
    </rdf:RDF>
  </metadata>
  <g
     inkscape:label="Layer 1"
     inkscape:groupmode="layer"
     id="layer1"
     transform="translate(-28.565534,-132.43192)">
    <g
       aria-label="CELESTINE"
       id="text839"
       style="font-size:25.4px;line-height:125%;font-family:'Anonymous Pro';-inkscape-font-specification:'Anonymous Pro';letter-spacing:1.42081px;word-spacing:0px;fill:#00e1a8;fill-opacity:1;stroke:none;stroke-width:1.32292;stroke-linecap:butt;stroke-linejoin:miter;stroke-miterlimit:4;stroke-dasharray:31.75, 1.32292;stroke-dashoffset:0;stroke-opacity:1"
       transform="translate(1.057315,-1.0127236)">
      <path
         id="path876"
         style="font-style:normal;font-variant:normal;font-weight:normal;font-stretch:normal;font-size:25.4px;font-family:'Poplar Std';-inkscape-font-specification:'Poplar Std';fill:#00e1a8;fill-opacity:1;stroke:none;stroke-width:1.32292;stroke-linecap:round;stroke-linejoin:round;stroke-miterlimit:4;stroke-dasharray:31.75, 1.32292;stroke-dashoffset:0"
         sodipodi:type="inkscape:offset"
         inkscape:radius="0.88222855"
         inkscape:original="M 52.265625 163.70312 C 50.844547 163.70312 49.868739 164.18597 49.117188 165.15039 C 48.365634 166.11481 47.863281 167.66234 47.863281 169.78125 L 47.863281 174.83594 C 47.863281 176.42722 48.308707 177.87607 49.046875 178.85938 C 49.785043 179.84268 50.74397 180.40625 52.138672 180.40625 C 53.467497 180.40625 54.445354 180.03635 55.228516 179.05273 C 55.901764 178.20716 56.365162 176.6258 56.503906 174.40625 L 53.78125 174.30664 L 53.78125 175.95312 C 53.78125 176.32719 53.671502 176.73101 53.382812 177.07422 C 53.094124 177.41743 52.598318 177.64844 52.138672 177.64844 C 51.262452 177.64844 50.494141 176.81542 50.494141 175.97852 L 50.494141 168.08008 C 50.494141 167.19583 51.214851 166.38672 52.138672 166.38672 C 52.497518 166.38672 52.949479 166.51397 53.292969 166.85742 C 53.636458 167.20088 53.78125 167.69231 53.78125 168.10547 L 53.78125 168.94531 L 56.632812 168.83789 C 56.556892 167.41704 56.179606 166.1303 55.505859 165.25 C 54.759922 164.27538 53.769819 163.70312 52.265625 163.70312 z M 101.72461 163.70312 C 99.003855 163.70312 97.626953 165.90037 97.626953 167.87695 C 97.626953 169.20361 98.286161 170.77279 99.707031 171.91797 C 100.55461 172.60109 101.34625 173.2277 101.97266 173.80859 C 102.28586 174.09904 102.55835 174.37461 102.79297 174.68555 C 103.02759 174.99648 103.29102 175.34563 103.29102 175.97852 C 103.29102 176.43175 103.21902 176.91831 102.87305 177.36328 C 102.52703 177.80825 101.91539 178.0293 101.4707 178.0293 C 100.94866 178.0293 100.49605 177.77967 100.20898 177.51367 C 99.921925 177.24767 99.744034 176.95795 99.599609 176.66406 C 99.438289 176.3358 99.401908 175.97635 99.318359 175.62695 L 97.5625 175.7168 C 97.686826 177.08634 97.998574 178.24801 98.564453 178.98438 C 99.262984 179.89335 100.21939 180.40625 101.85156 180.40625 C 103.17864 180.40625 104.12353 179.90935 104.83008 179.06445 C 105.53663 178.21956 105.97461 176.97721 105.97461 175.52148 C 105.97461 174.18727 104.99413 172.64687 103.62305 171.71875 A 1.2366555 1.2366555 0 0 1 103.61914 171.7168 C 102.84238 171.18601 102.12634 170.67933 101.53906 170.12695 C 100.95179 169.57457 100.36133 168.94 100.36133 167.92773 C 100.36133 167.59487 100.43443 167.2116 100.71289 166.84961 C 100.99134 166.48762 101.52205 166.23437 101.97852 166.23438 C 102.50923 166.23438 103.07523 166.53623 103.38477 166.90625 C 103.51472 167.0616 103.53839 167.23687 103.61914 167.40039 L 105.86133 167.29883 C 105.53541 165.27182 104.14037 163.70314 101.72461 163.70312 z M 61.441406 163.75391 L 61.441406 180.33008 L 68.621094 180.33008 L 68.621094 177.54492 L 65.183594 177.54492 C 64.283796 177.54492 63.794922 176.85027 63.794922 176.13086 L 63.794922 174.63281 C 63.794922 174.32222 63.900238 173.94683 64.167969 173.65234 C 64.435699 173.35786 64.849376 173.19336 65.208984 173.19336 L 66.232422 173.19336 L 66.232422 170.63672 L 65.285156 170.63672 C 64.835258 170.63672 64.575202 170.48117 64.335938 170.26367 C 64.096672 170.04618 63.871094 169.68537 63.871094 169.22266 L 63.871094 167.80078 C 63.871094 167.08145 64.565858 166.38672 65.285156 166.38672 L 68.570312 166.38672 L 68.570312 163.75391 L 61.441406 163.75391 z M 73.527344 163.75391 L 73.527344 180.33008 L 80.707031 180.33008 L 80.707031 177.54492 L 77.320312 177.54492 C 76.420515 177.54492 75.931641 176.85026 75.931641 176.13086 L 75.931641 163.75391 L 73.527344 163.75391 z M 85.515625 163.75391 L 85.515625 180.33008 L 92.695312 180.33008 L 92.695312 177.54492 L 89.257812 177.54492 C 88.358015 177.54492 87.869141 176.85026 87.869141 176.13086 L 87.869141 174.63281 C 87.869141 174.32222 87.974457 173.94683 88.242188 173.65234 C 88.509918 173.35786 88.923595 173.19336 89.283203 173.19336 L 90.306641 173.19336 L 90.306641 170.63672 L 89.359375 170.63672 C 88.909476 170.63672 88.649421 170.48117 88.410156 170.26367 C 88.170892 170.04618 87.945312 169.68537 87.945312 169.22266 L 87.945312 167.80078 C 87.945312 167.08145 88.640077 166.38672 89.359375 166.38672 L 92.644531 166.38672 L 92.644531 163.75391 L 85.515625 163.75391 z M 110.6543 163.75391 L 110.6543 166.41211 L 112.28711 166.41211 C 113.05322 166.41211 113.85352 167.06926 113.85352 167.95312 L 113.85352 180.33008 L 116.41016 180.33008 L 116.41016 168.00391 C 116.41016 167.66082 116.51461 167.24676 116.81055 166.91602 C 117.10648 166.58527 117.56816 166.41211 117.95117 166.41211 L 119.61133 166.41211 L 119.61133 163.75391 L 110.6543 163.75391 z M 124.4043 163.75391 L 124.4043 180.33008 L 126.80859 180.33008 L 126.80859 163.75391 L 124.4043 163.75391 z M 131.73047 163.75391 L 131.73047 180.33008 L 133.70117 180.33008 L 133.70117 176.74219 C 133.70117 176.53283 133.69917 176.33416 133.82031 176.02148 C 133.88111 175.86515 133.98121 175.66456 134.19922 175.47461 C 134.41723 175.28466 134.77097 175.15039 135.06445 175.15039 C 135.65142 175.15039 136.00516 175.48824 136.19141 175.74609 C 136.37765 176.00394 136.4556 176.24872 136.50586 176.5 L 137.44531 180.33008 L 140.48438 180.33008 L 140.48438 163.75391 L 138.51172 163.75391 L 138.51172 168.51172 C 138.51172 168.7633 138.48652 169.02779 138.32031 169.3418 C 138.15407 169.6558 137.71007 170.07814 137.12305 170.07812 C 136.27418 170.07814 136.11631 169.62982 135.98633 169.42188 C 135.85635 169.21392 135.795 169.03352 135.74609 168.83789 L 134.38867 163.75391 L 131.73047 163.75391 z M 145.4043 163.75391 L 145.4043 180.33008 L 152.58398 180.33008 L 152.58398 177.54492 L 149.14648 177.54492 C 148.24669 177.54492 147.75781 176.85024 147.75781 176.13086 L 147.75781 174.63281 C 147.75781 174.3222 147.86313 173.94682 148.13086 173.65234 C 148.39859 173.35787 148.81227 173.19336 149.17188 173.19336 L 150.19531 173.19336 L 150.19531 170.63672 L 149.24805 170.63672 C 148.79815 170.63672 148.53809 170.48116 148.29883 170.26367 C 148.05956 170.04618 147.83398 169.68539 147.83398 169.22266 L 147.83398 167.80078 C 147.83398 167.0814 148.52875 166.38672 149.24805 166.38672 L 152.5332 166.38672 L 152.5332 163.75391 L 145.4043 163.75391 z M 99.097656 174.80664 C 99.098307 174.81164 99.102216 174.82552 99.103516 174.82812 C 99.102756 174.82112 99.098456 174.81404 99.097656 174.80664 z "
         d="m 52.265625,162.82031 c -1.620919,0 -2.952371,0.64326 -3.84375,1.78711 -0.915655,1.175 -1.441406,2.91548 -1.441406,5.17383 v 5.05469 c 0,1.75591 0.475663,3.37294 1.361328,4.55273 0.861236,1.14724 2.164513,1.90039 3.796875,1.90039 1.492547,0 2.84037,-0.50824 3.779297,-1.6875 0.884234,-1.11056 1.322049,-2.82504 1.466797,-5.14062 a 0.88231678,0.88231678 0 0 0 -0.847657,-0.93555 l -2.722656,-0.0996 a 0.88231678,0.88231678 0 0 0 -0.916015,0.88086 v 1.64648 c 0,0.20152 -0.05125,0.38612 -0.191407,0.55274 -0.09391,0.11165 -0.404308,0.25977 -0.568359,0.25976 -0.317065,0 -0.761719,-0.49015 -0.761719,-0.7871 v -7.89844 c 0,-0.40488 0.353019,-0.81055 0.761719,-0.81055 0.150282,0 0.384337,0.064 0.53125,0.21094 0.133605,0.13359 0.228516,0.41796 0.228516,0.625 v 0.83984 a 0.88231678,0.88231678 0 0 0 0.916015,0.88086 l 2.851563,-0.10742 a 0.88231678,0.88231678 0 0 0 0.847656,-0.92773 c -0.08272,-1.54802 -0.477321,-2.99456 -1.306641,-4.07813 -0.873636,-1.14147 -2.213454,-1.89258 -3.941406,-1.89258 z m 49.458985,0 c -1.59787,0 -2.901014,0.67992 -3.738282,1.6543 -0.837268,0.97438 -1.242187,2.2092 -1.242187,3.40234 0,1.61891 0.786509,3.41991 2.410156,4.72852 0.851323,0.68613 1.632133,1.30562 2.218753,1.84961 0.29626,0.27475 0.52709,0.51289 0.71484,0.76172 0.2346,0.3109 0.32031,0.37363 0.32031,0.76172 0,0.35979 -0.0413,0.59798 -0.23242,0.84375 -0.12367,0.15903 -0.55275,0.32421 -0.70508,0.32421 -0.24079,0 -0.5123,-0.14048 -0.66211,-0.27929 -0.18608,-0.17244 -0.29879,-0.34929 -0.41797,-0.5918 -0.072,-0.14658 -0.11293,-0.42735 -0.21484,-0.85351 a 0.88231678,0.88231678 0 0 0 -0.212889,-0.39844 0.88231678,0.88231678 0 0 0 0.01758,-0.29102 c -0.03241,-0.29854 -0.03491,-0.29016 -0.0059,-0.0215 l -0.466797,0.0566 a 0.88231678,0.88231678 0 0 0 -0.234374,-0.0215 l -1.75586,0.0898 a 0.88231678,0.88231678 0 0 0 -0.833984,0.96094 c 0.13227,1.45704 0.437995,2.75691 1.18164,3.7246 0.837903,1.09033 2.169336,1.76758 3.986326,1.76758 1.54731,0 2.81059,-0.64695 3.65625,-1.6582 0.86448,-1.03374 1.34961,-2.47669 1.34961,-4.10938 0,-1.65999 -1.06592,-3.21445 -2.5039,-4.29101 a 0.88231678,0.88231678 0 0 0 -0.23633,-0.24219 c -0.76935,-0.52573 -1.4519,-1.01225 -1.97461,-1.5039 -0.55662,-0.52355 -0.89844,-0.88745 -0.89844,-1.55665 0,-0.20369 0.0275,-0.35842 0.16797,-0.54101 0.0694,-0.0902 0.43626,-0.26954 0.56641,-0.26953 0.19618,0 0.60902,0.21029 0.73046,0.35547 -0.0457,-0.0547 -0.0421,-0.008 0.11914,0.31836 a 0.88231678,0.88231678 0 0 0 0.83008,0.49023 l 2.24219,-0.10156 a 0.88231678,0.88231678 0 0 0 0.83203,-1.02149 c -0.18862,-1.17307 -0.69803,-2.26273 -1.55469,-3.0625 -0.85665,-0.79976 -2.05428,-1.27538 -3.45312,-1.27539 z m -40.283204,0.0508 a 0.88231678,0.88231678 0 0 0 -0.882812,0.88282 v 16.57617 a 0.88231678,0.88231678 0 0 0 0.882812,0.88281 h 7.179688 a 0.88231678,0.88231678 0 0 0 0.882812,-0.88281 v -2.78516 a 0.88231678,0.88231678 0 0 0 -0.882812,-0.88281 h -3.4375 c -0.22287,0 -0.297713,-0.056 -0.373047,-0.14063 -0.07533,-0.0846 -0.132813,-0.23075 -0.132813,-0.39062 v -1.49805 c 0,-0.11115 0.04841,-0.28314 0.142578,-0.38672 0.07345,-0.0808 0.29811,-0.16992 0.388672,-0.16992 h 1.023438 a 0.88231678,0.88231678 0 0 0 0.882812,-0.88281 v -2.55664 a 0.88231678,0.88231678 0 0 0 -0.882812,-0.88281 h -0.947266 c -0.246547,0 -0.196728,0.002 -0.355468,-0.14258 -0.08413,-0.0765 -0.175782,-0.2127 -0.175782,-0.38867 v -1.42188 c 0,-0.15126 0.380016,-0.53125 0.53125,-0.53125 h 3.285156 a 0.88231678,0.88231678 0 0 0 0.882813,-0.88281 v -2.63281 a 0.88231678,0.88231678 0 0 0 -0.882813,-0.88282 z m 12.085938,0 a 0.88231678,0.88231678 0 0 0 -0.882813,0.88282 v 16.57617 a 0.88231678,0.88231678 0 0 0 0.882813,0.88281 h 7.179687 a 0.88231678,0.88231678 0 0 0 0.882813,-0.88281 v -2.78516 a 0.88231678,0.88231678 0 0 0 -0.882813,-0.88281 h -3.386719 c -0.222866,0 -0.297711,-0.056 -0.373046,-0.14063 -0.07534,-0.0846 -0.132813,-0.23076 -0.132813,-0.39062 v -12.37695 a 0.88231678,0.88231678 0 0 0 -0.882812,-0.88282 z m 11.988281,0 a 0.88231678,0.88231678 0 0 0 -0.882813,0.88282 v 16.57617 a 0.88231678,0.88231678 0 0 0 0.882813,0.88281 h 7.179687 a 0.88231678,0.88231678 0 0 0 0.882813,-0.88281 v -2.78516 a 0.88231678,0.88231678 0 0 0 -0.882813,-0.88281 h -3.4375 c -0.222866,0 -0.297711,-0.056 -0.373046,-0.14063 -0.07534,-0.0846 -0.132813,-0.23076 -0.132813,-0.39062 v -1.49805 c 0,-0.11115 0.04841,-0.28314 0.142578,-0.38672 0.07345,-0.0808 0.29811,-0.16992 0.388672,-0.16992 h 1.023438 a 0.88231678,0.88231678 0 0 0 0.882812,-0.88281 v -2.55664 a 0.88231678,0.88231678 0 0 0 -0.882812,-0.88281 h -0.947266 c -0.246549,0 -0.196725,0.002 -0.355469,-0.14258 -0.08413,-0.0765 -0.175781,-0.2127 -0.175781,-0.38867 v -1.42188 c 0,-0.15126 0.380016,-0.53125 0.53125,-0.53125 h 3.285156 a 0.88231678,0.88231678 0 0 0 0.882813,-0.88281 v -2.63281 a 0.88231678,0.88231678 0 0 0 -0.882813,-0.88282 z m 25.138675,0 a 0.88231678,0.88231678 0 0 0 -0.88282,0.88282 v 2.6582 a 0.88231678,0.88231678 0 0 0 0.88282,0.88281 h 1.63281 c 0.26161,0 0.68359,0.30689 0.68359,0.6582 v 12.37696 a 0.88231678,0.88231678 0 0 0 0.88282,0.88281 h 2.55664 a 0.88231678,0.88231678 0 0 0 0.88281,-0.88281 v -12.32617 c 0,-0.16404 0.055,-0.36507 0.17578,-0.5 0.0939,-0.10498 0.36532,-0.20899 0.48242,-0.20899 h 1.66016 a 0.88231678,0.88231678 0 0 0 0.88281,-0.88281 v -2.6582 a 0.88231678,0.88231678 0 0 0 -0.88281,-0.88282 z m 13.75,0 a 0.88231678,0.88231678 0 0 0 -0.88282,0.88282 v 16.57617 a 0.88231678,0.88231678 0 0 0 0.88282,0.88281 h 2.40429 a 0.88231678,0.88231678 0 0 0 0.88282,-0.88281 v -16.57617 a 0.88231678,0.88231678 0 0 0 -0.88282,-0.88282 z m 7.32617,0 a 0.88231678,0.88231678 0 0 0 -0.88281,0.88282 v 16.57617 a 0.88231678,0.88231678 0 0 0 0.88281,0.88281 h 1.9707 a 0.88231678,0.88231678 0 0 0 0.88281,-0.88281 v -3.58789 c 0,-0.21396 -0.0147,-0.21092 0.0586,-0.40039 v -0.002 c 0.0341,-0.0878 0.0504,-0.12399 0.13672,-0.19922 0.0169,-0.0147 0.26076,-0.10742 0.28515,-0.10742 0.24844,0 0.32215,0.10397 0.41211,0.22852 0.0995,0.13773 0.1266,0.22481 0.16406,0.41211 a 0.88231678,0.88231678 0 0 0 0.008,0.0371 l 0.93945,3.83008 a 0.88231678,0.88231678 0 0 0 0.85742,0.67187 h 3.03907 a 0.88231678,0.88231678 0 0 0 0.88281,-0.88281 v -16.57617 a 0.88231678,0.88231678 0 0 0 -0.88281,-0.88282 h -1.97266 a 0.88231678,0.88231678 0 0 0 -0.88281,0.88282 v 4.75781 c 0,0.19267 -2.6e-4,0.25241 -0.0879,0.41797 -0.0154,0.029 -0.25412,0.26563 -0.41797,0.26562 -0.26912,1e-5 -0.26808,-0.0412 -0.26563,-0.0391 0.002,0.002 0.008,0.008 -0.12304,-0.20117 -0.0746,-0.11931 -0.0951,-0.181 -0.13282,-0.33203 a 0.88231678,0.88231678 0 0 0 -0.004,-0.0137 l -1.35743,-5.08399 a 0.88231678,0.88231678 0 0 0 -0.85156,-0.6543 z m 13.67383,0 a 0.88231678,0.88231678 0 0 0 -0.88282,0.88282 v 16.57617 a 0.88231678,0.88231678 0 0 0 0.88282,0.88281 h 7.17968 a 0.88231678,0.88231678 0 0 0 0.88282,-0.88281 v -2.78516 a 0.88231678,0.88231678 0 0 0 -0.88282,-0.88281 h -3.4375 c -0.22285,0 -0.2977,-0.056 -0.37304,-0.14063 -0.0753,-0.0846 -0.13282,-0.23078 -0.13282,-0.39062 v -1.49805 c 0,-0.11118 0.0484,-0.28314 0.14258,-0.38672 0.0735,-0.0808 0.29813,-0.16992 0.38868,-0.16992 h 1.02343 a 0.88231678,0.88231678 0 0 0 0.88281,-0.88281 v -2.55664 a 0.88231678,0.88231678 0 0 0 -0.88281,-0.88281 h -0.94726 c -0.24654,0 -0.19673,0.002 -0.35547,-0.14258 -0.0842,-0.0765 -0.17578,-0.21267 -0.17578,-0.38867 v -1.42188 c 0,-0.15135 0.37997,-0.53125 0.53125,-0.53125 h 3.28515 a 0.88231678,0.88231678 0 0 0 0.88282,-0.88281 v -2.63281 a 0.88231678,0.88231678 0 0 0 -0.88282,-0.88282 z"
         transform="translate(-17.766269,-28.113656)" />
    </g>
    <g
       aria-label="CELESTINE"
       id="text835"
       style="font-size:25.4px;line-height:125%;font-family:'Anonymous Pro';-inkscape-font-specification:'Anonymous Pro';letter-spacing:1.42081px;word-spacing:0px;fill:none;stroke:#000000;stroke-width:1.32292;stroke-linecap:butt;stroke-linejoin:miter;stroke-miterlimit:4;stroke-dasharray:15.875, 15.875;stroke-dashoffset:0.264599;stroke-opacity:1"
       inkscape:path-effect="#path-effect927">
      <path
         d="m 29.25019,145.5513 c -0.265881,3.01262 1.77248,6.29825 4.868111,6.8162 2.976392,0.41459 6.008872,-2.13496 6.052778,-5.15211 0.190462,-1.0352 0.822965,-2.59585 -0.422783,-3.20913 -1.294751,-0.3529 -2.71927,-0.0764 -4.004592,-0.24332 -0.758602,0.4138 -0.105998,2.4133 -1.319127,1.97516 -0.499466,-1.22319 0.265619,-2.514 0.02577,-3.77769 -0.09907,-0.74209 -0.558982,-2.27831 0.350713,-2.4609 0.866736,0.85534 1.807976,2.01738 3.180069,1.44637 1.076107,0.0206 2.695008,-0.35499 2.594816,-1.72319 0.0078,-1.69604 -0.805245,-3.35181 -1.963735,-4.55814 -1.828937,-1.82749 -5.047386,-2.10485 -7.032642,-0.36725 -2.024721,1.60772 -2.447836,4.37732 -2.355755,6.81051 0.02775,1.48065 0.08117,2.96284 0.02638,4.44349 z"
         style="font-style:normal;font-variant:normal;font-weight:normal;font-stretch:normal;font-size:25.4px;font-family:'Poplar Std';-inkscape-font-specification:'Poplar Std';stroke-width:1.32292;stroke-linecap:round;stroke-linejoin:round;stroke-miterlimit:4;stroke-dasharray:15.875, 15.875;stroke-dashoffset:0.264599"
         id="path906"
         inkscape:original-d="m 29.25019,145.5513 c -0.02063,2.44507 0.969408,5.18828 3.290239,6.31897 2.261264,1.06846 5.360073,0.39524 6.645775,-1.85196 1.062565,-1.76007 1.277179,-3.87375 1.290786,-5.88941 -0.190613,-0.38557 -0.770878,-0.14773 -1.13767,-0.23781 -1.332511,-0.0305 -2.670215,-0.1367 -3.99948,-0.11977 -0.318505,0.37069 -0.112624,0.92683 -0.17145,1.38418 -0.04582,0.60981 0.106534,1.26329 -0.10795,1.83725 -0.737347,0.48044 -0.752598,-0.57879 -0.70485,-1.05823 0,-2.37987 0,-4.75975 0,-7.13962 0.342532,-1.05307 1.032808,0.0374 0.8128,0.66829 0.06016,0.4801 -0.182307,1.11177 0.289322,1.4288 1.04143,0.058 2.098706,-0.0632 3.146412,-0.0762 0.616991,-0.0345 1.238661,-0.0241 1.852625,-0.0877 0.233845,-1.02931 0.02182,-2.16314 -0.223249,-3.1934 -0.512207,-2.07637 -2.157454,-3.96524 -4.347901,-4.27231 -2.073677,-0.39089 -4.393958,0.46382 -5.465862,2.33919 -1.332658,2.13015 -1.166911,4.70589 -1.169547,7.11603 0,0.94457 0,1.88914 0,2.83371 z" />
      <path
         d="m 42.828871,151.9521 c 1.819799,0.77826 3.81013,0.005 5.696159,0.3302 1.225481,0 2.450961,0 3.676441,0 0.662647,-1.33257 -0.009,-2.84206 0.355867,-4.23007 -0.448016,-1.26785 -2.164909,-1.40396 -3.194072,-0.79665 -1.378785,0.6215 -2.12298,-2.21465 -0.492777,-2.10629 1.21162,-0.32215 1.501359,-1.79564 1.361814,-2.87839 0.278542,-1.06387 -0.852349,-1.63021 -1.553428,-2.16616 -1.451512,-0.83599 0.07874,-2.37583 1.288846,-1.85257 1.088953,0.56525 2.470623,-0.0893 2.51611,-1.3795 0.0064,-1.06671 0.227334,-2.27884 -0.427055,-3.20585 -0.855651,-0.8166 -2.145475,-0.51035 -3.208544,-0.43172 -1.750178,0.13953 -3.507646,-0.0992 -5.261194,-0.006 -1.15416,0.72783 -0.761994,2.23707 -0.758915,3.37235 0.0091,5.11692 -0.0061,10.23384 7.48e-4,15.35075 z"
         style="font-style:normal;font-variant:normal;font-weight:normal;font-stretch:normal;font-size:25.4px;font-family:'Poplar Std';-inkscape-font-specification:'Poplar Std';stroke-width:1.32292;stroke-linecap:round;stroke-linejoin:round;stroke-miterlimit:4;stroke-dasharray:15.875, 15.875;stroke-dashoffset:0.264599"
         id="path908"
         inkscape:original-d="m 42.828871,151.9521 c 0.09432,0.54345 0.768181,0.25967 1.156066,0.3302 2.738845,0 5.477689,0 8.216534,0 0.481748,-0.14169 0.20658,-0.77634 0.2794,-1.15607 -0.01236,-1.31305 0.02477,-2.63101 -0.01865,-3.941 -0.293993,-0.30562 -0.803897,-0.10106 -1.195858,-0.16073 -1.15303,0 -2.306059,0 -3.459089,0 -0.300254,-0.26431 -0.08929,-0.79008 -0.1524,-1.17136 -0.06876,-0.39819 0.01683,-0.86277 0.528467,-0.70824 0.593022,-0.0124 1.191859,0.0245 1.781345,-0.0179 0.257516,-0.29853 0.07248,-0.77154 0.128588,-1.14585 0,-1.22923 0,-2.45846 0,-3.68769 -0.230907,-0.34409 -0.790652,-0.10826 -1.171355,-0.1778 -0.383678,-0.0539 -0.851934,0.11864 -1.173779,-0.10716 -0.0074,-0.53309 -0.07135,-1.09976 0.03373,-1.62004 0.724752,-0.11515 1.490114,-0.0194 2.230999,-0.0508 0.748087,-0.012 1.500215,0.0241 2.245751,-0.0183 0.328129,-0.26677 0.106571,-0.78862 0.17145,-1.17085 -0.01225,-1.24776 0.02446,-2.49964 -0.01826,-3.74484 -0.266776,-0.32813 -0.788629,-0.10657 -1.170855,-0.17145 -2.693963,0 -5.387926,0 -8.081889,0 -0.535045,0.13912 -0.264101,0.80157 -0.3302,1.20687 0,5.83764 0,11.67529 0,17.51293 z" />
      <path
         d="m 59.9449,147.0245 c -0.370846,-3.78463 0.02871,-7.58848 -0.165335,-11.37946 0.675836,-1.19219 -0.616069,-2.98146 -1.968796,-2.45782 -1.088859,0.0273 -2.863177,-0.21493 -2.904961,1.35849 -0.232898,1.54597 0.156413,3.10292 0.0085,4.65477 0.03225,4.25051 -0.02585,8.5011 0.0014,12.75162 1.819799,0.77826 3.810129,0.005 5.696159,0.3302 1.22548,0 2.45096,0 3.67644,0 0.662495,-1.33328 -0.0086,-2.84327 0.355571,-4.23202 -0.459549,-1.24473 -2.016409,-1.21713 -3.111414,-1.07426 -0.527862,0.0429 -1.057986,0.0656 -1.587556,0.0485 z"
         style="font-style:normal;font-variant:normal;font-weight:normal;font-stretch:normal;font-size:25.4px;font-family:'Poplar Std';-inkscape-font-specification:'Poplar Std';stroke-width:1.32292;stroke-linecap:round;stroke-linejoin:round;stroke-miterlimit:4;stroke-dasharray:15.875, 15.875;stroke-dashoffset:0.264599"
         id="path910"
         inkscape:original-d="m 59.9449,147.0245 c -0.300254,-0.26431 -0.08929,-0.79008 -0.1524,-1.17136 0,-4.11381 0,-8.22763 0,-12.34144 -0.118012,-0.48608 -0.760374,-0.20412 -1.130666,-0.2794 -1.138645,0 -2.277289,0 -3.415934,0 -0.530688,0.15992 -0.266371,0.81824 -0.3302,1.23227 0,5.82917 0,11.65835 0,17.48753 0.09432,0.54345 0.768181,0.25967 1.156066,0.3302 2.738845,0 5.477689,0 8.216533,0 0.481748,-0.14169 0.20658,-0.77634 0.2794,-1.15607 -0.01236,-1.31305 0.02477,-2.63101 -0.01865,-3.941 -0.293993,-0.30562 -0.803897,-0.10106 -1.195858,-0.16073 -1.136096,0 -2.272192,0 -3.408288,0 z" />
      <path
         d="m 66.903308,151.9521 c 1.819799,0.77826 3.810129,0.005 5.696159,0.3302 1.22548,0 2.45096,0 3.67644,0 0.662645,-1.33257 -0.009,-2.84206 0.355871,-4.23007 -0.448019,-1.26785 -2.164911,-1.40396 -3.194075,-0.79665 -1.378785,0.6215 -2.122982,-2.21465 -0.492779,-2.10629 1.21162,-0.32215 1.50136,-1.79564 1.361815,-2.87839 0.278542,-1.06387 -0.852349,-1.63021 -1.553428,-2.16616 -1.451512,-0.83599 0.07874,-2.37583 1.288846,-1.85257 1.088953,0.56525 2.470623,-0.0893 2.51611,-1.3795 0.0064,-1.06671 0.227334,-2.27884 -0.427055,-3.20585 -0.855651,-0.8166 -2.145475,-0.51035 -3.208543,-0.43172 -1.750178,0.13953 -3.507647,-0.0992 -5.261194,-0.006 -1.15416,0.72783 -0.761994,2.23707 -0.758915,3.37235 0.0091,5.11692 -0.0061,10.23384 7.48e-4,15.35075 z"
         style="font-style:normal;font-variant:normal;font-weight:normal;font-stretch:normal;font-size:25.4px;font-family:'Poplar Std';-inkscape-font-specification:'Poplar Std';stroke-width:1.32292;stroke-linecap:round;stroke-linejoin:round;stroke-miterlimit:4;stroke-dasharray:15.875, 15.875;stroke-dashoffset:0.264599"
         id="path912"
         inkscape:original-d="m 66.903308,151.9521 c 0.09432,0.54345 0.768181,0.25967 1.156066,0.3302 2.738845,0 5.477689,0 8.216533,0 0.481748,-0.14169 0.20658,-0.77634 0.2794,-1.15607 -0.01236,-1.31305 0.02478,-2.63101 -0.01865,-3.941 -0.293993,-0.30562 -0.803897,-0.10106 -1.195858,-0.16073 -1.15303,0 -2.306059,0 -3.459089,0 -0.300254,-0.26431 -0.08929,-0.79008 -0.1524,-1.17136 -0.06876,-0.39819 0.01683,-0.86277 0.528467,-0.70824 0.593022,-0.0124 1.191859,0.0245 1.781345,-0.0179 0.257516,-0.29853 0.07248,-0.77154 0.128588,-1.14585 0,-1.22923 0,-2.45846 0,-3.68769 -0.230907,-0.34409 -0.790652,-0.10826 -1.171355,-0.1778 -0.383678,-0.0539 -0.851934,0.11864 -1.173779,-0.10716 -0.0074,-0.53309 -0.07135,-1.09976 0.03373,-1.62004 0.724752,-0.11515 1.490114,-0.0194 2.230999,-0.0508 0.748087,-0.012 1.500215,0.0241 2.245751,-0.0183 0.328129,-0.26677 0.106571,-0.78862 0.17145,-1.17085 -0.01225,-1.24776 0.02446,-2.49964 -0.01826,-3.74484 -0.266776,-0.32813 -0.788629,-0.10657 -1.170855,-0.17145 -2.693963,0 -5.387925,0 -8.081888,0 -0.535045,0.13912 -0.264101,0.80157 -0.3302,1.20687 0,5.83764 0,11.67529 0,17.51293 z" />
      <path
         d="m 89.556538,139.2013 c 0.73714,-2.19622 -0.821885,-4.52466 -2.740661,-5.51563 -2.67304,-1.29455 -6.459219,-0.0563 -7.415258,2.87227 -0.969512,2.60733 0.105085,5.80325 2.448277,7.30038 0.846293,0.90505 2.27136,1.33259 2.621092,2.64028 -1.087268,0.85246 -1.735254,-0.76709 -2.481348,-1.29694 -1.221804,-0.74639 -3.29757,0.16726 -3.113669,1.73178 0.07792,2.6727 2.216081,5.28693 4.968412,5.45075 2.537878,0.29463 5.117641,-1.44508 5.746972,-3.93162 0.736721,-2.4597 -0.15092,-5.40033 -2.312066,-6.85708 -0.660571,-0.76942 -1.916486,-0.84904 -2.357125,-1.82764 -0.184643,-1.60015 1.73226,-0.40249 2.506638,-0.26626 0.701081,-0.12114 1.384734,-0.43641 2.128736,-0.30029 z"
         style="font-style:normal;font-variant:normal;font-weight:normal;font-stretch:normal;font-size:25.4px;font-family:'Poplar Std';-inkscape-font-specification:'Poplar Std';stroke-width:1.32292;stroke-linecap:round;stroke-linejoin:round;stroke-miterlimit:4;stroke-dasharray:15.875, 15.875;stroke-dashoffset:0.264599"
         id="path914"
         inkscape:original-d="m 89.556538,139.2013 c 0.679216,-0.46755 0.09718,-1.65939 -0.03216,-2.36711 -0.67464,-2.1283 -2.781364,-3.66665 -5.016252,-3.65075 -2.242037,-0.13515 -4.40993,1.35577 -5.137786,3.46992 -0.996126,2.53953 0.213546,5.50662 2.343884,7.06998 0.995024,0.86627 2.177066,1.5921 2.901067,2.71904 0.495324,1.34997 -1.375945,1.25683 -1.417191,0.07 -0.202642,-0.64021 -0.124814,-1.72685 -1.07569,-1.41708 -1.037205,0.0627 -2.078692,0.0853 -3.113226,0.17298 -0.419099,0.86086 0.0087,2.06544 0.166688,3.01823 0.43845,1.86121 1.866268,3.53659 3.794604,3.91042 2.012749,0.50247 4.364316,-0.0925 5.601872,-1.83492 1.153817,-1.60306 1.597932,-3.78869 0.986884,-5.68413 -0.57408,-1.69224 -1.971157,-2.90849 -3.43563,-3.83939 -0.739095,-0.5997 -1.749441,-1.17328 -1.901068,-2.19604 0.356758,-1.14822 1.176761,0.22101 1.343025,0.72152 1.32787,-0.0146 2.661375,-0.11495 3.990975,-0.16272 z" />
      <path
         d="m 99.915372,152.2823 c 0.839468,-1.97398 0.0019,-4.13052 0.355598,-6.17512 0,-2.46282 0,-4.92565 0,-7.38848 0.9147,-0.74801 2.90118,0.11135 3.09107,-1.50479 0.2583,-1.19249 0.32316,-2.53184 -0.33224,-3.61415 -1.08369,-0.9025 -2.51816,-0.18638 -3.762467,-0.33823 -2.093453,-0.0353 -4.187259,-0.0355 -6.28093,-0.0447 -1.360316,0.53169 -1.108255,2.27087 -1.108481,3.44669 0.116975,1.48014 1.582009,1.70072 2.685196,1.96472 0.994637,0.69349 0.965845,2.0564 0.717921,3.11067 -0.193505,3.16846 0.116567,6.34362 -0.07628,9.5121 0.233307,1.46663 2.037986,1.05769 3.087878,0.97819 0.541415,0.002 1.081017,0.0697 1.622733,0.0531 z"
         style="font-style:normal;font-variant:normal;font-weight:normal;font-stretch:normal;font-size:25.4px;font-family:'Poplar Std';-inkscape-font-specification:'Poplar Std';stroke-width:1.32292;stroke-linecap:round;stroke-linejoin:round;stroke-miterlimit:4;stroke-dasharray:15.875, 15.875;stroke-dashoffset:0.264599"
         id="path916"
         inkscape:original-d="m 99.915372,152.2823 c 0.568798,-0.10151 0.288498,-0.79899 0.355598,-1.20687 0,-4.11891 0,-8.23782 0,-12.35673 0.0694,-0.57613 0.78289,-0.28447 1.18147,-0.3556 0.6008,-0.0168 1.20804,0.0344 1.80462,-0.027 0.38079,-0.28739 0.15142,-0.84572 0.21431,-1.26372 -0.0175,-1.22203 0.0352,-2.45098 -0.0266,-3.66864 -0.30954,-0.31791 -0.83092,-0.11286 -1.23872,-0.17145 -3.31203,0 -6.624059,0 -9.936088,0 -0.420918,0.15755 -0.152404,0.76735 -0.2286,1.13067 0.02008,1.25355 -0.04018,2.51706 0.03016,3.76439 0.282329,0.4189 0.864249,0.16709 1.293593,0.23574 0.557081,0.0143 1.119288,-0.0292 1.673048,0.0226 0.371415,0.26789 0.138055,0.81668 0.203597,1.21729 0,4.1079 0,8.21579 0,12.32369 0.122888,0.565 0.816008,0.29042 1.232266,0.3556 1.147112,0 2.294223,0 3.441334,0 z" />
      <path
         d="m 110.36509,152.2823 c 0.7125,-1.73684 0.0256,-3.62702 0.3048,-5.42546 0,-4.45685 0,-8.91369 0,-13.37054 -1.27691,-0.61933 -2.71695,0.0211 -4.04207,-0.33799 -1.1,0.66363 -0.92395,2.10363 -0.86344,3.20281 0.0739,5.05935 0,10.11959 0.0303,15.17928 0.7168,1.07892 2.14629,0.78355 3.23973,0.72463 0.44577,-0.0397 0.8856,0.0768 1.33066,0.0273 z"
         style="font-style:normal;font-variant:normal;font-weight:normal;font-stretch:normal;font-size:25.4px;font-family:'Poplar Std';-inkscape-font-specification:'Poplar Std';stroke-width:1.32292;stroke-linecap:round;stroke-linejoin:round;stroke-miterlimit:4;stroke-dasharray:15.875, 15.875;stroke-dashoffset:0.264599"
         id="path918"
         inkscape:original-d="m 110.36509,152.2823 c 0.50672,-0.15632 0.23622,-0.80612 0.3048,-1.20687 0,-5.86304 0,-11.72609 0,-17.58913 -0.17273,-0.44824 -0.79712,-0.18117 -1.18147,-0.254 -1.18445,0.0147 -2.37596,-0.0293 -3.55603,0.0218 -0.27586,0.32165 -0.0806,0.82435 -0.1393,1.22573 0,5.80714 0,11.61429 0,17.42144 0.0849,0.59425 0.79311,0.31775 1.20687,0.381 1.12171,0 2.24342,0 3.36513,0 z" />
      <path
         d="m 113.11742,151.9267 c 1.12577,0.76901 2.52066,0.0939 3.75009,0.41493 1.06017,-0.85524 0.79572,-2.36494 0.53734,-3.52696 0.79668,-1.16212 1.73317,0.85864 1.08137,1.52179 0.099,1.16622 1.27634,2.19147 2.45858,1.93953 1.08389,0.0443 2.51925,0.37915 3.24244,-0.67961 0.6622,-1.48957 -0.035,-3.12676 0.16627,-4.68066 -0.0529,-4.29159 0.0218,-8.58338 5.3e-4,-12.87506 -0.78507,-1.14435 -2.3742,-1.04035 -3.56475,-0.74462 -1.22591,0.65461 -1.23194,2.36622 -0.7372,3.49006 0.48069,0.91972 -1.06936,1.98778 -1.07098,0.55693 -0.26196,-1.26818 -0.14901,-2.83657 -1.29371,-3.70691 -1.2278,-0.63245 -2.83243,-0.76494 -4.04796,-0.0624 -1.04557,1.08964 -0.48974,2.67893 -0.51367,4.00802 0.0351,3.37697 -0.0991,6.75407 -0.003,10.13067 0.003,1.40475 8.7e-4,2.80951 -0.006,4.21424 z"
         style="font-style:normal;font-variant:normal;font-weight:normal;font-stretch:normal;font-size:25.4px;font-family:'Poplar Std';-inkscape-font-specification:'Poplar Std';stroke-width:1.32292;stroke-linecap:round;stroke-linejoin:round;stroke-miterlimit:4;stroke-dasharray:15.875, 15.875;stroke-dashoffset:0.264599"
         id="path920"
         inkscape:original-d="m 113.11742,151.9267 c 0.0433,0.57702 0.74619,0.28467 1.13067,0.3556 1.03598,-0.0178 2.07936,0.0356 3.11073,-0.0266 0.36698,-0.28573 0.14079,-0.82964 0.2036,-1.23872 0.0211,-1.27703 -0.0435,-2.56203 0.0349,-3.83374 0.39882,-0.16861 0.36146,0.71576 0.50108,1.0111 0.33028,1.31122 0.62429,2.63382 0.97727,3.93793 0.3221,0.29291 0.82822,0.0897 1.23288,0.15002 1.29065,-0.0178 2.58916,0.0355 3.87491,-0.0266 0.30274,-0.33985 0.10285,-0.86998 0.16073,-1.29717 0,-5.79021 0,-11.58043 0,-17.37064 -0.1005,-0.5682 -0.79911,-0.28878 -1.20687,-0.3556 -1.0177,0.0178 -2.04301,-0.0355 -3.05596,0.0266 -0.33783,0.32229 -0.12001,0.86983 -0.18217,1.29717 -0.009,1.60604 0.0172,3.21359 -0.0131,4.81867 -0.31683,0.45618 -0.3988,-0.592 -0.51287,-0.85675 -0.4651,-1.7031 -0.88993,-3.41937 -1.38022,-5.11423 -0.33202,-0.32098 -0.86984,-0.11102 -1.29717,-0.17145 -1.13459,0.0177 -2.27778,-0.0354 -3.40699,0.0266 -0.31943,0.3339 -0.11201,0.86957 -0.17145,1.29717 0,5.79021 0,11.58043 0,17.37064 z" />
      <path
         d="m 126.79174,151.9521 c 1.8198,0.77826 3.81013,0.005 5.69616,0.3302 1.22548,0 2.45096,0 3.67644,0 0.66265,-1.33257 -0.009,-2.84207 0.3559,-4.23007 -0.44801,-1.26786 -2.16491,-1.40396 -3.19407,-0.79665 -1.37878,0.6215 -2.12297,-2.21466 -0.49277,-2.10629 1.21162,-0.32214 1.50136,-1.79562 1.36182,-2.87837 0.27854,-1.06386 -0.85232,-1.63022 -1.55339,-2.16618 -1.4515,-0.83599 0.0787,-2.37582 1.28883,-1.85256 1.08895,0.56525 2.4706,-0.0894 2.51606,-1.37953 0.006,-1.06671 0.22732,-2.27884 -0.42708,-3.20583 -0.85566,-0.81659 -2.14548,-0.51035 -3.20855,-0.43172 -1.75018,0.13952 -3.50765,-0.0992 -5.2612,-0.006 -1.15416,0.72783 -0.76199,2.23707 -0.75891,3.37235 0.009,5.11692 -0.006,10.23384 7.6e-4,15.35075 z"
         style="font-style:normal;font-variant:normal;font-weight:normal;font-stretch:normal;font-size:25.4px;font-family:'Poplar Std';-inkscape-font-specification:'Poplar Std';stroke-width:1.32292;stroke-linecap:round;stroke-linejoin:round;stroke-miterlimit:4;stroke-dasharray:15.875, 15.875;stroke-dashoffset:0.264599"
         id="path922"
         inkscape:original-d="m 126.79174,151.9521 c 0.0943,0.54345 0.76818,0.25967 1.15607,0.3302 2.73884,0 5.47769,0 8.21653,0 0.48175,-0.14169 0.20658,-0.77634 0.2794,-1.15607 -0.0124,-1.31305 0.0248,-2.63101 -0.0186,-3.941 -0.294,-0.30562 -0.8039,-0.10106 -1.19586,-0.16073 -1.15303,0 -2.30606,0 -3.45909,0 -0.30025,-0.26431 -0.0893,-0.79008 -0.1524,-1.17136 -0.0688,-0.39819 0.0168,-0.86277 0.52847,-0.70824 0.59302,-0.0124 1.19186,0.0245 1.78134,-0.0179 0.25752,-0.29853 0.0725,-0.77154 0.12859,-1.14585 0,-1.22923 0,-2.45846 0,-3.68769 -0.23091,-0.34409 -0.79065,-0.10826 -1.17136,-0.1778 -0.38367,-0.0539 -0.85193,0.11864 -1.17377,-0.10716 -0.007,-0.53309 -0.0714,-1.09976 0.0337,-1.62004 0.72475,-0.11515 1.49011,-0.0194 2.231,-0.0508 0.74809,-0.012 1.50021,0.0241 2.24575,-0.0183 0.32813,-0.26677 0.10657,-0.78862 0.17145,-1.17085 -0.0123,-1.24776 0.0245,-2.49964 -0.0183,-3.74484 -0.26677,-0.32813 -0.78862,-0.10657 -1.17085,-0.17145 -2.69396,0 -5.38793,0 -8.08189,0 -0.53504,0.13912 -0.2641,0.80157 -0.3302,1.20687 0,5.83764 0,11.67529 0,17.51293 z" />
    </g>
    <text
       id="text850"
       y="160.03424"
       x="83.958572"
       style="font-style:normal;font-variant:normal;font-weight:normal;font-stretch:normal;font-size:4.23333px;line-height:125%;font-family:sans-serif;-inkscape-font-specification:sans-serif;letter-spacing:0px;word-spacing:0px;fill:#000000;fill-opacity:0.458824;stroke:none;stroke-width:0.264583px;stroke-linecap:butt;stroke-linejoin:miter;stroke-opacity:1"
       xml:space="preserve"><tspan
         style="font-style:normal;font-variant:normal;font-weight:normal;font-stretch:normal;font-size:4.23333px;font-family:sans-serif;-inkscape-font-specification:sans-serif;fill:#000000;fill-opacity:0.458824;stroke:none;stroke-width:0.264583px"
         y="160.03424"
         x="83.958572"
         id="tspan848"
         sodipodi:role="line">by @cpox freelancer.com</tspan></text>
  </g>
</svg>
